<?xml version="1.0" standalone="no"?>
<!DOCTYPE svg PUBLIC "-//W3C//DTD SVG 20010904//EN"
 "http://www.w3.org/TR/2001/REC-SVG-20010904/DTD/svg10.dtd">
<svg version="1.0" xmlns="http://www.w3.org/2000/svg"
 width="84.000000pt" height="105.000000pt" viewBox="0 0 84.000000 105.000000"
 preserveAspectRatio="xMidYMid meet">

<g transform="translate(0.000000,105.000000) scale(0.100000,-0.100000)"
fill="#000000" stroke="none">
<path d="M127 766 c-49 -18 -67 -34 -84 -74 -26 -63 9 -142 57 -127 20 6 21
12 15 55 -6 44 -4 50 17 63 33 22 90 30 153 22 l54 -6 -46 -72 c-25 -40 -71
-107 -102 -149 -50 -68 -60 -77 -96 -83 -58 -10 -85 -30 -85 -65 0 -15 7 -36
16 -44 24 -24 85 -20 123 8 l33 24 64 -24 c105 -39 197 -27 243 32 16 20 20
22 31 9 6 -8 35 -25 63 -40 42 -20 64 -25 126 -24 114 1 125 7 129 57 3 42 3
42 -23 32 -15 -6 -56 -10 -93 -10 -87 0 -123 21 -147 85 -43 112 38 275 137
275 39 0 59 -25 56 -71 -2 -45 10 -62 43 -57 23 3 24 8 27 80 l3 78 -33 20
c-44 27 -135 27 -186 1 -51 -27 -97 -74 -124 -129 -18 -38 -23 -65 -25 -140
-1 -102 -7 -115 -59 -132 -28 -9 -50 -9 -108 4 l-73 17 94 142 c52 78 106 152
120 163 31 27 27 54 -12 73 -43 21 -258 26 -308 7z"/>
</g>
</svg>
